# xmcd
#
# Track frame offsets:
#	150
#	10068
#	25735
#	41245
#	55355
#	69325
#	86678
#	101273
#	112235
#	128658
#
# Disc length: 1843
#
# Revision: 1
# Processed by: cddbd v1.5.1PL0 Copyright (c) Steve Scherf et al.
# Submitted via: CDex 1.51
# Normalized: r0:DSETVAR1,TDELIM( - )
#
DISCID=7e07310a
DTITLE=Various Artist - Stars of the British Blues Vol. 1
DYEAR=1992
DGENRE=Blues
TTITLE0=Eric Clapton - I'm Your Witchdoctor
TTITLE1=Jimmy Page - Down in the Boots
TTITLE2=Stuff Smith - Howlin' for My Darling
TTITLE3=Eric Clapton - Draggin' My Tail
TTITLE4=Jeremy Spencer - Look Down at My Woman
TTITLE5=Albert Lee - Crosstown Link
TTITLE6=Rod Stewart - So Much to Say
TTITLE7=Jeff Beck - Chuckles
TTITLE8=Savoy Brown Blues Band - I Can't Quit You Baby
TTITLE9=Eric Clapton - Tribute to Elmore
EXTD=YEAR: 1992
EXTT0=
EXTT1=
EXTT2=
EXTT3=
EXTT4=
EXTT5=
EXTT6=
EXTT7=
EXTT8=
EXTT9=
PLAYORDER=
